<?xml version="1.0" encoding="utf-8"?>
<!-- Generator: Adobe Illustrator 24.1.2, SVG Export Plug-In . SVG Version: 6.00 Build 0)  -->
<svg version="1.1" id="Layer_1" xmlns="http://www.w3.org/2000/svg" xmlns:xlink="http://www.w3.org/1999/xlink" x="0px" y="0px"
	 viewBox="0 0 36 35.6" style="enable-background:new 0 0 36 35.6;" xml:space="preserve">
<style type="text/css">
	.st0{fill:#1894FF;}
	.st1{fill:#00DE9A;}
</style>
<g transform="translate(-622 -869)">
	<path class="st0" d="M629.2,904.6v-6.8h-3.6c-2,0-3.6-1.6-3.6-3.6v-21.6c0-2,1.6-3.6,3.6-3.6c0,0,0,0,0,0h28.8c2,0,3.6,1.6,3.6,3.6
		v21.6c0,2-1.6,3.6-3.6,3.6h-14.2L629.2,904.6L629.2,904.6z M625.6,872.6v21.6h7.2v4l6.3-4h15.3v-21.6H625.6z"/>
	<path class="st1" d="M638.2,884.5l7.7-7.7l2.5,2.5l-10.3,10.3l-6.7-6.7l2.5-2.5L638.2,884.5z"/>
</g>
</svg>
