<?xml version="1.0" encoding="utf-8"?>
<!-- Generator: Adobe Illustrator 24.1.2, SVG Export Plug-In . SVG Version: 6.00 Build 0)  -->
<svg version="1.1" id="Layer_1" xmlns="http://www.w3.org/2000/svg" xmlns:xlink="http://www.w3.org/1999/xlink" x="0px" y="0px"
	 viewBox="0 0 36 36" style="enable-background:new 0 0 36 36;" xml:space="preserve">
<style type="text/css">
	.st0{fill:#1894FF;}
	.st1{fill:#00DE9A;}
</style>
<g transform="translate(-608 -1187)">
	<path class="st0" d="M614.7,1195.2h4.7v3.3h-9.8v-9.8h3.3v3.7c3.7-3.8,7.8-5.3,13.1-5.3c9.9,0,18,8.1,18,18s-8.1,18-18,18
		s-18-8.1-18-18h3.3c0,8.1,6.6,14.7,14.7,14.7s14.7-6.6,14.7-14.7s-6.6-14.7-14.7-14.7l0,0C621.4,1190.3,617.9,1191.6,614.7,1195.2z
		"/>
	<path class="st1" d="M627.9,1202h6v3h-9v-10.5h3V1202z"/>
</g>
</svg>
