<?xml version="1.0" encoding="utf-8"?>
<!-- Generator: Adobe Illustrator 24.1.2, SVG Export Plug-In . SVG Version: 6.00 Build 0)  -->
<svg version="1.1" id="Layer_1" xmlns="http://www.w3.org/2000/svg" xmlns:xlink="http://www.w3.org/1999/xlink" x="0px" y="0px"
	 viewBox="0 0 33 33" style="enable-background:new 0 0 33 33;" xml:space="preserve">
<style type="text/css">
	.st0{fill:#1894FF;}
	.st1{fill:#00DE9A;}
</style>
<g transform="translate(-622.5 -868)">
	<path class="st0" d="M639,901c-1.9,0-3.7-1.1-5.4-3.5c-0.7,0.1-1.3,0.2-2,0.2c-1.6,0.1-3.1-0.4-4.3-1.5c-1.4-1.4-1.8-3.4-1.4-6.3
		c-2.3-1.7-3.5-3.5-3.5-5.4s1.1-3.7,3.5-5.4c-0.4-2.9,0-4.9,1.4-6.3c1.2-1.1,2.7-1.6,4.3-1.5c0.7,0,1.3,0.1,2,0.2
		c1.7-2.3,3.5-3.5,5.4-3.5s3.7,1.1,5.4,3.5c0.7-0.1,1.3-0.2,2-0.2c1.6-0.1,3.1,0.5,4.3,1.5c1.4,1.4,1.8,3.4,1.3,6.3
		c2.3,1.7,3.5,3.5,3.5,5.4s-1.1,3.7-3.5,5.4c0.4,2.9,0,4.9-1.3,6.3c-1.2,1.1-2.7,1.6-4.3,1.5c-0.7,0-1.3-0.1-2-0.2
		C642.7,899.9,640.9,901,639,901z M634.3,894.4c0.5,0,1,0.3,1.3,0.7c1.2,1.9,2.4,3,3.4,3s2.2-1,3.4-3c0.3-0.5,1-0.8,1.6-0.7
		c0.8,0.2,1.6,0.3,2.4,0.3c0.8,0.1,1.5-0.2,2.2-0.6c0.7-0.7,0.8-2.3,0.4-4.5c-0.1-0.6,0.1-1.2,0.7-1.6c1.9-1.2,3-2.4,3-3.4
		s-1-2.2-3-3.4c-0.5-0.3-0.8-1-0.7-1.6c0.5-2.2,0.4-3.8-0.4-4.5c-0.6-0.5-1.4-0.7-2.2-0.6c-0.8,0-1.6,0.1-2.4,0.3
		c-0.6,0.1-1.2-0.1-1.6-0.7c-1.2-1.9-2.4-3-3.4-3s-2.2,1-3.4,3c-0.3,0.5-1,0.8-1.6,0.7c-0.8-0.2-1.6-0.3-2.4-0.3
		c-0.8-0.1-1.6,0.2-2.2,0.6c-0.7,0.7-0.8,2.3-0.4,4.5c0.1,0.6-0.1,1.2-0.7,1.6c-1.9,1.2-3,2.4-3,3.4s1,2.2,3,3.4
		c0.5,0.3,0.8,1,0.6,1.6c-0.5,2.2-0.4,3.8,0.4,4.5c0.6,0.5,1.4,0.7,2.2,0.6c0.8,0,1.6-0.1,2.4-0.3
		C634.1,894.4,634.2,894.4,634.3,894.4z"/>
	<path class="st1" d="M637.5,885.4l6.4-6.4l2.1,2.1l-8.6,8.6l-5.6-5.6l2.1-2.1L637.5,885.4z"/>
</g>
</svg>
