<?xml version="1.0" encoding="utf-8"?>
<!-- Generator: Adobe Illustrator 24.1.2, SVG Export Plug-In . SVG Version: 6.00 Build 0)  -->
<svg version="1.1" id="Layer_1" xmlns="http://www.w3.org/2000/svg" xmlns:xlink="http://www.w3.org/1999/xlink" x="0px" y="0px"
	 viewBox="0 0 36 36" style="enable-background:new 0 0 36 36;" xml:space="preserve">
<style type="text/css">
	.st0{fill:#1894FF;}
	.st1{fill:#FFFFFF;}
</style>
<g transform="translate(-621 -866)">
	<path class="st0" d="M644.6,892.2c-6.4,4.9-15.6,3.8-20.5-2.6c-4.9-6.4-3.8-15.6,2.6-20.5c6.4-4.9,15.6-3.8,20.5,2.6
		c4.1,5.3,4.1,12.6,0,17.9l9.8,9.8l-2.6,2.6L644.6,892.2z"/>
	<path class="st1" d="M635.6,891.6c6.1,0,11-4.9,11-11s-4.9-11-11-11c-6.1,0-11,4.9-11,11C624.7,886.7,629.6,891.6,635.6,891.6
		C635.6,891.6,635.6,891.6,635.6,891.6z"/>
</g>
</svg>
