<?xml version="1.0" encoding="utf-8"?>
<!-- Generator: Adobe Illustrator 24.1.2, SVG Export Plug-In . SVG Version: 6.00 Build 0)  -->
<svg version="1.2" baseProfile="tiny" id="Layer_1" xmlns="http://www.w3.org/2000/svg" xmlns:xlink="http://www.w3.org/1999/xlink"
	 x="0px" y="0px" viewBox="0 0 24 26.2" overflow="visible" xml:space="preserve">
<g id="support" transform="translate(-17.756)">
	<g id="Group_5522" transform="translate(17.756)">
		<path id="Path_15760" fill="#FFFFFF" d="M21.5,10.8L21.5,10.8l-0.1-1.6c0-5.1-4.1-9.2-9.2-9.2S2.9,4.1,2.9,9.2c0,0,0,0,0,0v1.6
			H2.5C1.1,10.9,0,12.1,0,13.6v4.1c0,1.4,1.1,2.6,2.5,2.6c0,0,0,0,0,0h2.4c0.3,0,0.6-0.3,0.6-0.6c0,0,0,0,0,0c0,0,0,0,0,0v-7.9
			c0-0.4-0.2-0.8-0.6-0.8H4.2V9.2c0-4.4,3.6-7.9,8-7.9c4.3,0,7.8,3.5,7.9,7.9v1.6h-0.7c-0.4,0-0.6,0.4-0.6,0.8v7.9
			c0,0.3,0.2,0.6,0.5,0.7h0h0.7l-0.1,0.1c-1,1.3-2.5,2.1-4.1,2c-0.4-1.7-2.1-2.9-3.8-2.5c-1.5,0.3-2.6,1.6-2.6,3.1
			c0,1.8,1.5,3.2,3.2,3.2c0.9,0,1.7-0.4,2.3-1c0.4-0.4,0.7-1,0.8-1.6c2,0,3.9-0.9,5.2-2.6l0.6-0.9c1.2,0,2.2-0.9,2.3-2.1
			c0,0,0-0.1,0-0.1v-4.1C24,12.5,23,10.8,21.5,10.8z M4.2,18.9H2.5c-0.7,0-1.3-0.6-1.2-1.3c0,0,0,0,0,0c0,0,0,0,0,0v-4
			c0-0.7,0.5-1.4,1.2-1.4h1.7L4.2,18.9z M14.2,24.3c-0.4,0.4-0.9,0.6-1.4,0.6c-1.1,0-1.9-0.9-1.9-1.9c0-1.1,0.9-1.9,1.9-1.9
			s1.9,0.9,1.9,1.9l0,0C14.8,23.5,14.6,23.9,14.2,24.3L14.2,24.3z M22.7,17.9c0,0.9-0.8,1-1.2,1h-1.4v-6.8h1.4c0.7,0,1.2,1,1.2,1.8
			V17.9z"/>
	</g>
</g>
</svg>
